<svg width="45" height="36" viewBox="0 0 45 36" fill="none" xmlns="http://www.w3.org/2000/svg">
<path d="M11.25 1.125H33.75C39.3419 1.125 43.875 5.65812 43.875 11.25V27C43.875 30.1066 41.3566 32.625 38.25 32.625H6.75C3.6434 32.625 1.125 30.1066 1.125 27V11.25C1.125 5.65812 5.65812 1.125 11.25 1.125Z" fill="#67CCAB"/>
<path d="M11.25 1.125H33.75C39.3419 1.125 43.875 5.65812 43.875 11.25V27C43.875 30.1066 41.3566 32.625 38.25 32.625H6.75C3.6434 32.625 1.125 30.1066 1.125 27V11.25C1.125 5.65812 5.65812 1.125 11.25 1.125Z" stroke="#369978" stroke-width="2.25"/>
<path d="M13.5 7.875H31.5C34.6066 7.875 37.125 10.3934 37.125 13.5V29.25C37.125 32.3566 34.6066 34.875 31.5 34.875H13.5C10.3934 34.875 7.875 32.3566 7.875 29.25V13.5C7.875 10.3934 10.3934 7.875 13.5 7.875Z" fill="#67CCAB"/>
<path d="M13.5 7.875H31.5C34.6066 7.875 37.125 10.3934 37.125 13.5V29.25C37.125 32.3566 34.6066 34.875 31.5 34.875H13.5C10.3934 34.875 7.875 32.3566 7.875 29.25V13.5C7.875 10.3934 10.3934 7.875 13.5 7.875Z" stroke="#369978" stroke-width="2.25"/>
<g clip-path="url(#clip0_716_1573)">
<path d="M28.6662 14.0153C28.5423 13.9348 28.4037 13.8796 28.2585 13.8527C28.1132 13.8259 27.9641 13.8279 27.8196 13.8587C27.6751 13.8895 27.5381 13.9484 27.4164 14.0322C27.2947 14.1159 27.1907 14.2228 27.1103 14.3468L20.8066 24.0634L17.7323 21.2209C17.6239 21.1206 17.4967 21.0426 17.3581 20.9915C17.2195 20.9404 17.0722 20.917 16.9246 20.9228C16.6265 20.9345 16.3453 21.0641 16.1427 21.2831C15.9402 21.5022 15.8329 21.7927 15.8446 22.0908C15.8563 22.3889 15.9859 22.6702 16.205 22.8728L20.2415 26.6048C20.2415 26.6048 20.3573 26.7045 20.411 26.7394C20.5349 26.8199 20.6735 26.8751 20.8188 26.902C20.9641 26.9289 21.1133 26.9269 21.2578 26.8961C21.4023 26.8654 21.5394 26.8064 21.6611 26.7226C21.7828 26.6388 21.8868 26.5319 21.9672 26.4079L28.9977 15.5711C29.0781 15.4472 29.1334 15.3087 29.1602 15.1634C29.1871 15.0181 29.1851 14.869 29.1543 14.7245C29.1235 14.58 29.0646 14.443 28.9808 14.3213C28.8971 14.1996 28.7902 14.0956 28.6662 14.0153Z" fill="white"/>
</g>
<defs>
<clipPath id="clip0_716_1573">
<rect width="13.5" height="13.5" fill="white" transform="translate(15.75 13.5)"/>
</clipPath>
</defs>
</svg>
