<svg width="45" height="36" viewBox="0 0 45 36" fill="none" xmlns="http://www.w3.org/2000/svg">
<path d="M11.25 1.125H33.75C39.3419 1.125 43.875 5.65812 43.875 11.25V27C43.875 30.1066 41.3566 32.625 38.25 32.625H6.75C3.6434 32.625 1.125 30.1066 1.125 27V11.25C1.125 5.65812 5.65812 1.125 11.25 1.125Z" fill="#FFEBAD"/>
<path d="M11.25 1.125H33.75C39.3419 1.125 43.875 5.65812 43.875 11.25V27C43.875 30.1066 41.3566 32.625 38.25 32.625H6.75C3.6434 32.625 1.125 30.1066 1.125 27V11.25C1.125 5.65812 5.65812 1.125 11.25 1.125Z" stroke="#DAA846" stroke-width="2.25"/>
<path d="M13.5 7.875H31.5C34.6066 7.875 37.125 10.3934 37.125 13.5V29.25C37.125 32.3566 34.6066 34.875 31.5 34.875H13.5C10.3934 34.875 7.875 32.3566 7.875 29.25V13.5C7.875 10.3934 10.3934 7.875 13.5 7.875Z" fill="#FFEBAD"/>
<path d="M13.5 7.875H31.5C34.6066 7.875 37.125 10.3934 37.125 13.5V29.25C37.125 32.3566 34.6066 34.875 31.5 34.875H13.5C10.3934 34.875 7.875 32.3566 7.875 29.25V13.5C7.875 10.3934 10.3934 7.875 13.5 7.875Z" stroke="#DAA846" stroke-width="2.25"/>
</svg>
