<svg width="45" height="34" viewBox="0 0 45 34" fill="none" xmlns="http://www.w3.org/2000/svg">
<rect x="1.125" y="1.125" width="42.75" height="31.5" rx="5.625" fill="#F2F2F2"/>
<rect x="1.125" y="1.125" width="42.75" height="31.5" rx="5.625" stroke="#CCCCCC" stroke-width="2.25"/>
<g clip-path="url(#clip0_716_1595)">
<path d="M24.524 24.0761C24.27 24.0133 24.0178 24.1651 23.955 24.4164C23.3775 26.7095 21.3244 28.3108 18.9609 28.3108C16.1184 28.3108 13.8047 25.998 13.8047 23.1545C13.8047 20.9776 15.1865 19.0267 17.2425 18.2983C17.4862 18.212 17.6137 17.9439 17.5284 17.7001C17.4412 17.4554 17.174 17.3279 16.9294 17.4151C14.4994 18.2748 12.8672 20.5811 12.8672 23.1545C12.8671 26.5145 15.6009 29.2482 18.9609 29.2482C21.7537 29.2482 24.1809 27.3554 24.8643 24.6451C24.9271 24.3939 24.7743 24.1389 24.524 24.0761Z" fill="#CCCCCC"/>
<path d="M19.8867 11.4375C21.1814 11.4375 22.2304 10.3885 22.2304 9.09378C22.2305 7.79906 21.1814 6.75 19.8867 6.75C18.592 6.75 17.543 7.79906 17.543 9.09374C17.543 10.3885 18.592 11.4375 19.8867 11.4375Z" fill="#CCCCCC"/>
<path d="M31.7156 23.0597C31.1625 22.5065 30.1997 22.5065 29.6466 23.0597L29.2753 23.4319L26.4056 20.5622C25.9622 20.1197 25.3744 19.8759 24.7482 19.8759H21.7744C21.5166 19.8759 21.3057 19.6659 21.3057 19.4072V16.7887L22.38 17.8631C22.4822 17.9653 22.6247 18.0122 22.7691 17.9972L25.5357 17.6513C25.9229 17.6025 26.266 17.4047 26.5032 17.0944C26.7403 16.7841 26.8397 16.4006 26.7844 16.0116C26.6728 15.2288 25.9238 14.6625 25.1241 14.79L23.6794 15.0244L21.5541 12.9C21.2166 12.5616 20.7657 12.375 20.2828 12.375C19.2947 12.375 18.4922 13.1785 18.4922 14.1656V20.3438C18.4922 21.6356 19.5431 22.6875 20.8359 22.6875H24.5531L28.3603 26.4947C28.6256 26.76 28.9791 26.9063 29.355 26.9063C29.731 26.9063 30.0835 26.76 30.3497 26.4947L31.7157 25.1278C32.2847 24.5587 32.2856 23.6306 31.7156 23.0597Z" fill="#CCCCCC"/>
</g>
<defs>
<clipPath id="clip0_716_1595">
<rect width="22.5" height="22.5" fill="white" transform="translate(11.25 6.75)"/>
</clipPath>
</defs>
</svg>
